{"extensionsUsed" : ["KHR_materials_pbrSpecularGlossiness"], "accessors" : [{"bufferView" : 0, "byteOffset" : 0, "componentType" : 5123, "count" : 240, "type" : "SCALAR", "max" : [239], "min" : [0]}, {"bufferView" : 1, "byteOffset" : 0, "componentType" : 5126, "count" : 240, "type" : "VEC3", "max" : [0.047877807170152664, 0.04787779599428177, 0.04966805502772331], "min" : [-0.04787778854370117, -0.047877803444862366, -0.04966805502772331], "name" : "POSITION"}, {"bufferView" : 1, "byteOffset" : 12, "componentType" : 5126, "count" : 240, "type" : "VEC3", "max" : [0.9876927137374878, 0.9876927137374878, 1.0000044107437134], "min" : [-0.987692654132843, -0.9876927137374878, -1.0000044107437134], "name" : "NORMAL"}, {"bufferView" : 1, "byteOffset" : 24, "componentType" : 5126, "count" : 240, "type" : "VEC2", "max" : [0.9939802289009094, 1], "min" : [-0, 0.08721655607223511], "name" : "TEXCOORD_0"}, {"bufferView" : 0, "byteOffset" : 480, "componentType" : 5123, "count" : 654, "type" : "SCALAR", "max" : [617], "min" : [0]}, {"bufferView" : 2, "byteOffset" : 0, "componentType" : 5126, "count" : 618, "type" : "VEC3", "max" : [0.017743824049830437, 0.01774381287395954, 0.0498027466237545], "min" : [-0.017743803560733795, -0.01774381659924984, -0.049802739173173904], "name" : "POSITION"}, {"bufferView" : 2, "byteOffset" : 12, "componentType" : 5126, "count" : 618, "type" : "VEC3", "max" : [1.0000044107437134, 1.0000044107437134, 1.0000044107437134], "min" : [-1.0000044107437134, -1.0000044107437134, -1.0000044107437134], "name" : "NORMAL"}, {"bufferView" : 2, "byteOffset" : 24, "componentType" : 5126, "count" : 618, "type" : "VEC2", "max" : [0.9939802885055542, 1], "min" : [-0, 5.960464477539063E-08], "name" : "TEXCOORD_0"}], "asset" : {"generator" : "Aspose.3D 23.7.0", "version" : "2.0"}, "buffers" : [{"uri" : "data:application/octet-stream;base64,", "byteLength" : 30408}], "bufferViews" : [{"buffer" : 0, "byteOffset" : 0, "byteLength" : 1788, "target" : 34963}, {"buffer" : 0, "byteOffset" : 1792, "byteLength" : 7680, "byteStride" : 32, "target" : 34962}, {"buffer" : 0, "byteOffset" : 9476, "byteLength" : 20928, "byteStride" : 32, "target" : 34962}], "images" : [{"uri" : "data:image/png;base64,"}, {"uri" : "data:image/png;base64,"}, {"uri" : "data:image/png;base64,"}, {"uri" : "data:image/png;base64,"}], "materials" : [{"name" : "", "extensions" : {"KHR_materials_pbrSpecularGlossiness" : {"diffuseFactor" : [1, 1, 1, 1], "diffuseTexture" : {"index" : 0, "texCoord" : 0}, "specularFactor" : [1, 1, 1], "glossinessFactor" : 1, "specularGlossinessTexture" : {"index" : 1, "texCoord" : 0, "scale" : 1}}}, "pbrMetallicRoughness" : {"baseColorFactor" : [1, 1, 1, 1], "baseColorTexture" : {"index" : 2, "texCoord" : 0}, "metallicFactor" : 1, "roughnessFactor" : 1, "metallicRoughnessTexture" : {"index" : 3, "texCoord" : 0}}, "emissiveFactor" : [0, 0, 0], "alphaMode" : "OPAQUE", "doubleSided" : true}, {"name" : "", "extensions" : {"KHR_materials_pbrSpecularGlossiness" : {"diffuseFactor" : [1, 1, 1, 1], "diffuseTexture" : {"index" : 0, "texCoord" : 0}, "specularFactor" : [1, 1, 1], "glossinessFactor" : 1, "specularGlossinessTexture" : {"index" : 1, "texCoord" : 0, "scale" : 1}}}, "pbrMetallicRoughness" : {"baseColorFactor" : [1, 1, 1, 1], "baseColorTexture" : {"index" : 2, "texCoord" : 0}, "metallicFactor" : 1, "roughnessFactor" : 1, "metallicRoughnessTexture" : {"index" : 3, "texCoord" : 0}}, "emissiveFactor" : [0, 0, 0], "alphaMode" : "OPAQUE", "doubleSided" : true}], "meshes" : [{"primitives" : [{"attributes" : {"POSITION" : 1, "NORMAL" : 2, "TEXCOORD_0" : 3}, "indices" : 0, "material" : 0, "mode" : 4}]}, {"primitives" : [{"attributes" : {"POSITION" : 5, "NORMAL" : 6, "TEXCOORD_0" : 7}, "indices" : 4, "material" : 1, "mode" : 4}]}], "nodes" : [{"matrix" : [0.5677579641342163, 3.3110398517719026E-16, 1.1540424968788535E-33, 0, -3.3110405469743186E-16, 0.5677580833435059, 2.991541745069958E-24, 0, -1.1540409945858671E-33, -2.991541745069958E-24, 0.5677580833435059, 0, 0, 0, 0, 1], "mesh" : 0, "name" : "node_id34"}, {"matrix" : [1.3478584289550781, 7.860414568772012E-16, 9.006165223817564E-33, 0, -7.86041665437926E-16, 1.3478587865829468, 7.101926413126241E-24, 0, -9.006163471739705E-33, -7.101926413126241E-24, 1.3478587865829468, 0, 0, 0, 0, 1], "mesh" : 1, "name" : "node_id36"}, {"children" : [0, 1], "matrix" : [1, 7.341775187796884E-09, 3.033877963972636E-32, 0, -7.341775187796884E-09, 1, 5.269042982977683E-24, 0, 8.345349396134471E-33, -5.269042982977683E-24, 1, 0, 0, 0, 0, 1], "name" : "node_id33"}, {"children" : [2], "matrix" : [1, 0, 0, 0, 0, 1, 5.269042982977683E-24, 0, 0, -5.269042982977683E-24, 1, 0, 0, 0, 0, 1], "name" : "node_id32"}, {"children" : [3], "matrix" : [3813.66259765625, 0, 0, 0, 0, -0.0001305361262669072, 3813.662955401374, 0, 0, 3813.662955401374, 0.0001305361262669072, 0, -1.775875352905132E-05, 1.0616739018587396E-05, 256, 1], "name" : "node_id31"}, {"children" : [4], "matrix" : [0.0010000000474974513, 0, 0, 0, 0, 0.0010000000474974513, 0, 0, 0, 0, 0.0010000000474974513, 0, 0, 0, 0, 1], "name" : "node_id38"}, {"children" : [5], "name" : "root"}], "samplers" : [{"magFilter" : 9728, "minFilter" : 9985, "wrapS" : 10497, "wrapT" : 10497}, {"magFilter" : 9728, "minFilter" : 9985, "wrapS" : 10497, "wrapT" : 10497}, {"magFilter" : 9728, "minFilter" : 9985, "wrapS" : 10497, "wrapT" : 10497}, {"magFilter" : 9728, "minFilter" : 9985, "wrapS" : 10497, "wrapT" : 10497}], "scene" : 0, "scenes" : [{"nodes" : [6]}], "textures" : [{"sampler" : 0, "source" : 0, "name" : ""}, {"sampler" : 1, "source" : 1, "name" : ""}, {"sampler" : 2, "source" : 2, "name" : ""}, {"sampler" : 3, "source" : 3, "name" : ""}]}